PathFileType	4	(X/Y/Z)	/Users/mathieubourgeois/Desktop/Analyse/Traitement/Sujet_07/Data/Transformed_Sujet_07_velo_60.trc
DataRate	CameraRate	NumFrames	NumMarkers	Units	OrigDataRate	OrigDataStartFrame	OrigNumFrames
120.000000	120.000000	4	36	mm	120.000000	1167	1868
Frame#	Time	RFHD			LFHD			RBHD			LBHD			C7			CLAV			RSHO			LSHO			STRN			T10			RBWT			LBWT			RFWT			LFWT			RKNI			LKNI			RKNE			LKNE			LANI			RANI			LANE			RANE			LTOE			RTOE			LHEE			RHEE			RHUM			LHUM			RRAD			LRAD			RWRA			RWRB			LWRA			LWRB			LCAR			RCAR			
		X1	Y1	Z1	X2	Y2	Z2	X3	Y3	Z3	X4	Y4	Z4	X5	Y5	Z5	X6	Y6	Z6	X7	Y7	Z7	X8	Y8	Z8	X9	Y9	Z9	X10	Y10	Z10	X11	Y11	Z11	X12	Y12	Z12	X13	Y13	Z13	X14	Y14	Z14	X15	Y15	Z15	X16	Y16	Z16	X17	Y17	Z17	X18	Y18	Z18	X19	Y19	Z19	X20	Y20	Z20	X21	Y21	Z21	X22	Y22	Z22	X23	Y23	Z23	X24	Y24	Z24	X25	Y25	Z25	X26	Y26	Z26	X27	Y27	Z27	X28	Y28	Z28	X29	Y29	Z29	X30	Y30	Z30	X31	Y31	Z31	X32	Y32	Z32	X33	Y33	Z33	X34	Y34	Z34	X35	Y35	Z35	X36	Y36	Z36	

1168	9.725	279.5146484375	1390.063232421875	117.0668792724609	273.710205078125	1375.756713867188	-17.60350799560552	211.6548767089843	1526.212768554688	122.1736450195312	199.9310913085938	1525.112182617188	-22.21278953552253	52.99124908447265	1501.683349609375	46.40559005737296	36.18165969848632	1367.6318359375	57.19702148437492	71.61225891113278	1438.229125976562	200.8617248535155	87.49344635009767	1461.816528320312	-81.58424377441413	-123.6274719238281	1294.370727539062	45.21121978759756	-192.3574066162109	1515.512573242188	31.68860244750965	-436.0589599609375	1299.611572265625	109.1744689941405	-439.2943115234375	1293.262939453125	-5.343677520752086	-278.3625183105469	1212.011962890625	155.8760223388671	-283.5628356933594	1205.617065429688	-57.93598937988292	-37.53988265991212	799.2332763671875	130.1295318603515	-125.3137054443359	754.6492309570312	-29.67219543457037	-63.84042739868167	857.3093872070312	232.3310241699218	-98.53819274902342	799.6644897460938	-135.2400665283204	-367.1606750488281	464.8409423828125	-48.61691665649421	-98.93689727783205	420.3388366699219	126.2297134399414	-387.3248291015625	466.4958190917969	-135.9774475097657	-128.893539428711	409.8671875	212.5641326904296	-253.7536926269531	301.78955078125	-108.7219009399414	78.69750213623044	344.3057250976562	202.7451629638672	-443.7327880859375	488.0864562988281	-97.15660858154305	-182.3905639648438	387.2431640625	167.552017211914	82.14990234374997	1104.852172851562	235.8901672363281	94.60242462158205	1119.490112304688	-128.1553192138672	129.1017608642578	1131.154052734375	278.1419677734374	154.6815948486328	1135.775146484375	-152.179672241211	321.7223510742187	936.40625	251.6188812255859	281.0666503906249	902.74462890625	305.0493774414062	317.3872680664062	929.90625	-102.6829528808594	276.4345092773438	887.297119140625	-153.0931091308594	371.2196350097656	915.2191162109375	-193.0271148681641	370.0822448730468	926.658447265625	341.5147399902344	
1169	9.733333333333333	279.7157592773438	1389.899536132812	115.8049621582031	273.607177734375	1376.067504882812	-18.93810462951665	211.8451232910156	1526.0126953125	121.5999374389648	199.8525390625	1525.505004882812	-22.79680252075202	53.05748748779296	1501.773315429688	45.7806854248046	36.24127578735351	1367.688842773438	56.52996444702141	71.90680694580075	1438.25341796875	200.2265472412109	87.40880584716798	1461.817626953125	-82.33419036865241	-123.5884399414062	1294.442626953125	45.00902557373038	-192.4087219238281	1515.612548828125	31.9028797149657	-435.6239318847656	1299.302001953125	110.1609878540038	-439.2783813476562	1293.455078125	-4.332785129547252	-277.8735046386719	1211.464721679688	156.0158538818358	-283.5708312988281	1206.068969726562	-57.72322082519542	-40.67523574829103	791.470947265625	129.5684204101562	-119.1445922851562	761.0863037109375	-29.79362869262701	-68.34158325195315	849.9472045898438	231.2910003662109	-92.64228057861327	806.1953735351562	-135.3470306396485	-364.9911193847656	474.8796691894531	-47.37736129760749	-97.98137664794923	411.9062805175781	126.3191223144531	-385.2458801269531	477.0341186523438	-135.3410949707032	-127.9989242553711	401.2978515625	212.5641174316406	-254.3095092773438	310.0705871582031	-108.5880661010743	79.49423217773435	334.5184326171875	202.40380859375	-441.1876831054688	499.4392700195312	-96.2536163330079	-180.946762084961	378.3059692382812	166.7610321044921	82.35733795166013	1104.868408203125	235.5849609374999	94.57788848876955	1119.465942382812	-128.3385009765626	129.3088684082031	1131.16357421875	277.8450927734374	154.6339874267578	1135.75244140625	-152.3858337402344	321.8381347656249	936.3505859375	251.5141906738281	281.1326293945312	902.7391357421875	304.9395751953125	317.4046325683594	929.9282836914062	-102.7794189453125	276.4361877441406	887.3090209960938	-153.1699371337891	371.2428588867188	915.1764526367188	-193.0955505371094	370.1442871093749	926.6436157226562	341.4501342773438	
1170	9.741666666666667	279.8310852050781	1389.786987304688	114.596565246582	273.5365600585938	1376.429321289062	-20.26751518249517	212.0659027099609	1525.868286132812	120.9515304565429	199.8164367675781	1525.857666015625	-23.37169837951667	53.06061935424804	1501.878051757812	45.12313461303702	36.14493560791015	1367.776611328125	55.77449035644523	72.26168060302732	1438.27490234375	199.6488189697265	87.34378051757814	1461.834350585938	-83.16615295410163	-123.6346664428711	1294.53759765625	44.72677993774405	-192.4267425537109	1515.698486328125	32.14858627319325	-435.194091796875	1299.043579101562	111.1121673583983	-439.231201171875	1293.658325195312	-3.410864591598644	-277.4188232421875	1210.898193359375	156.1989135742186	-283.5580444335938	1206.495239257812	-57.4936866760255	-45.63792800903322	784.6715087890625	128.5658874511718	-112.9666137695312	767.78369140625	-29.88589096069342	-72.96599578857425	842.6710205078125	230.2529144287109	-86.7714385986328	812.904296875	-135.5169219970704	-362.3415222167969	484.84423828125	-46.70355987548835	-97.53313446044923	403.6228942871094	126.3722381591796	-382.737548828125	487.5011291503906	-134.7131652832032	-127.4682083129883	392.9249267578125	212.6000671386718	-254.2362670898438	318.6645812988281	-108.6622467041016	79.80043029785153	324.6114807128906	202.0265502929687	-438.3002319335938	510.6337280273438	-95.39793395996102	-180.3602905273438	370.1285095214844	166.8023223876953	82.57816314697263	1104.8818359375	235.2925109863281	94.57584381103517	1119.436401367188	-128.5407714843751	129.4927215576172	1131.171020507812	277.5660705566406	154.6216583251953	1135.71044921875	-152.6149597167969	321.9538879394531	936.283447265625	251.4202117919922	281.2169494628906	902.7156982421875	304.8341369628906	317.4372253417969	929.9302368164062	-102.8814239501953	276.7443542480469	887.5537109375	-152.9658508300782	371.2973937988281	915.1171875	-193.1552124023438	370.1970214843749	926.6175537109375	341.3899536132812	
1171	9.75	280.0108947753906	1389.679809570312	113.433723449707	273.5198364257812	1376.732788085938	-21.48961639404302	212.2869262695312	1525.734619140625	120.3603820800781	199.8006591796875	1526.202026367188	-23.94619178771979	53.15321350097656	1501.9970703125	44.48682785034171	36.19003677368163	1367.891479492188	55.09597015380852	72.66581726074216	1438.257934570312	199.0570983886718	87.26722717285158	1461.815063476562	-83.9285964965821	-123.5769271850586	1294.649047851562	44.54969024658194	-192.4111480712891	1515.817260742188	32.40672302246082	-434.6985168457031	1298.7861328125	112.0688323974608	-439.1728210449219	1293.869506835938	-2.475175142288341	-276.8700256347656	1210.377563476562	156.3270874023436	-283.5126342773438	1206.947387695312	-57.23883819580089	-50.74718475341798	777.4169311523438	127.5469894409179	-106.9160995483398	774.4818115234375	-30.0396575927735	-77.84239196777347	835.5664672851562	229.1877441406249	-80.90866088867186	819.7783813476562	-135.6199798583985	-359.2650146484375	494.7936706542969	-46.1303901672364	-97.44364166259767	395.5924987792969	126.5930404663086	-379.8743286132812	497.7933654785156	-134.1116180419923	-127.3534927368164	384.7482299804688	212.7378997802734	-254.0292663574219	326.6123046875	-108.1301574707032	79.61981201171872	314.7272033691406	201.6421661376953	-435.02587890625	521.5689697265625	-94.54529571533212	-180.1965789794922	362.2398986816406	166.9994812011718	82.76860809326169	1104.900146484375	235.0507202148437	94.61824798583986	1119.36865234375	-128.7654113769532	129.6937103271484	1131.20166015625	277.3173828124999	154.6416015625	1135.650024414062	-152.8614654541016	322.0668029785156	936.1990966796875	251.3564910888672	281.2818603515624	902.6825561523438	304.7455139160156	317.4930419921875	929.9139404296875	-102.9260482788086	276.7472229003906	887.4432373046875	-153.0102233886719	371.3814086914062	915.0726928710938	-193.1854858398438	370.2409973144531	926.6041259765625	341.3634338378906	
